v 0 0 1.8261578372669118
v 0 3 1.7430558287465518
v 0 6 0.6871466264721988
v 0 9 0.0756894306302156
v 0 12 1.681423804948434
v 0 15 1.350185243583282
v 0 18 1.5584653604476935
v 0 21 1.4155909910734186
v 0 24 0.23900020667595756
v 0 27 0.4790104713547041
v 3 0 1.9044820258648103
v 3 3 0.19708857334539598
v 3 6 0.46037565686834214
v 3 9 0.9044456887684205
v 3 12 0.04052051946810442
v 3 15 1.6515745591452002
v 3 18 0.7292523262001032
v 3 21 0.7669397433597416
v 3 24 1.575153886936225
v 3 27 1.3026196720430494
v 6 0 0.020578022281272146
v 6 3 0.8566898352299492
v 6 6 1.473802783086983
v 6 9 1.3810390437215205
v 6 12 0.3101220427154563
v 6 15 0.5848038867046765
v 6 18 0.8866536134445604
v 6 21 0.6953118934775202
v 6 24 0.8126392834701874
v 6 27 1.3763280602477037
v 9 0 1.1504277513129575
v 9 3 0.14048552277546245
v 9 6 0.8729024876672584
v 9 9 1.3344383855674888
v 9 12 1.7342783671219322
v 9 15 0.8747000653405768
v 9 18 1.890646295534834
v 9 21 1.9827935612226932
v 9 24 1.4716127022403631
v 9 27 0.2038533403843612
v 12 0 0.9432370406081982
v 12 3 0.47906706794959564
v 12 6 1.7410926942923137
v 12 9 1.834579948219918
v 12 12 1.2786337662998248
v 12 15 1.9958939217112757
v 12 18 1.7141711997236375
v 12 21 0.41462205399161145
v 12 24 1.9908534816887293
v 12 27 1.3508536440091488
v 15 0 -2
v 15 3 -2
v 15 6 -2
v 15 9 -2
v 15 12 -2
v 15 15 -2
v 15 18 -2
v 15 21 -2
v 15 24 -2
v 15 27 -2
v 18 0 0.2997176151410319
v 18 3 0.5875618842622168
v 18 6 0.3700123920900684
v 18 9 1.3913912811330897
v 18 12 0.7791583867149665
v 18 15 0.3441030122917439
v 18 18 1.2453374646204716
v 18 21 1.31758260041408
v 18 24 1.8886475232248445
v 18 27 0.33769112423186276
v 21 0 0.8749377668723537
v 21 3 1.6069303925631129
v 21 6 0.0891630413838791
v 21 9 1.6334509460920195
v 21 12 0.19885540324559647
v 21 15 0.43013122075739973
v 21 18 1.6272636155078208
v 21 21 1.1115242355302617
v 21 24 1.9376204297279445
v 21 27 0.4113762123768012
v 24 0 0.33505226960611934
v 24 3 1.3033704055902766
v 24 6 0.6757837131088194
v 24 9 0.6538130423016111
v 24 12 1.3088388252254752
v 24 15 1.0443260929286717
v 24 18 0.2473577515913019
v 24 21 1.8570121537630522
v 24 24 1.5583738608269757
v 24 27 0.08746956768402536
v 27 0 0.03295944430065423
v 27 3 0.10082270790926273
v 27 6 1.322282554458223
v 27 9 1.3933172964479714
v 27 12 0.6541075469086153
v 27 15 0.061817522193423624
v 27 18 0.74454356628137
v 27 21 1.3578904392793982
v 27 24 0.5870204432595734
v 27 27 0.0967034456717617
vn -0.07832418859789847 0.08310200852035998 1.0
vn 1.5459672554011559 1.055909202274353 1.0
vn 0.22677096960385668 0.6114571958419832 1.0
vn -0.8287562581382049 -1.6057343743182184 1.0
vn 1.6409032854803296 0.33123856136515206 1.0
vn -0.3013893155619183 -0.2082801168644115 1.0
vn 0.8292130342475903 0.1428743693742749 1.0
vn 0.648651247713677 1.176590784397461 1.0
vn -1.3361536802602674 -0.24001026467874653 1.0
vn 1.8839040035835382 1.7073934525194143 1.0
vn -0.6596012618845533 -0.26328708352294616 1.0
vn 1.5459672554011559 1.7073934525194143 1.0
vn -1.013427126218641 -0.4440700319000783 1.0
vn 0.22677096960385668 -0.26328708352294616 1.0
vn -0.47659335495310007 0.863925169300316 1.0
vn -0.8287562581382049 -0.4440700319000783 1.0
vn -0.26960152324735187 -1.6110540396770958 1.0
vn 1.6409032854803296 0.863925169300316 1.0
vn 1.0667706724405237 0.9223222329450971 1.0
vn -0.3013893155619183 -1.6110540396770958 1.0
vn -0.15740128724445723 -0.037687417159638414 1.0
vn 0.8292130342475903 0.9223222329450971 1.0
vn 0.07162784988222137 -0.8082141435764834 1.0
vn 0.648651247713677 -0.037687417159638414 1.0
vn 0.7625146034660375 0.27253421489317553 1.0
vn -1.3361536802602674 -0.8082141435764834 1.0
vn -0.8236092006883453 0.27253421489317553 1.0
vn -1.1298497290316853 -0.8361118129486771 1.0
vn 0.7162043124544868 -0.6171129478570339 1.0
vn -0.6596012618845533 -0.8361118129486771 1.0
vn 0.6009002954197247 0.09276373936546256 1.0
vn -1.013427126218641 -0.6171129478570339 1.0
vn 0.04660065815403169 1.0709170010060642 1.0
vn -0.47659335495310007 0.09276373936546256 1.0
vn -1.4241563244064759 -0.27468184398922024 1.0
vn -0.26960152324735187 1.0709170010060642 1.0
vn -0.2898961786359002 -0.30184972673988386 1.0
vn 1.0667706724405237 -0.27468184398922024 1.0
vn -1.0039926820902736 0.1913417199670402 1.0
vn -0.15740128724445723 -0.30184972673988386 1.0
vn -1.287481667745173 -0.11732738999266723 1.0
vn 0.07162784988222137 0.1913417199670402 1.0
vn -0.6589734187701757 -0.5636887767775163 1.0
vn 0.7625146034660375 -0.11732738999266723 1.0
vn -0.07370838820465431 -0.5636887767775163 1.0
vn 0.20719071070475925 1.009942228537495 1.0
vn -0.3385815451741332 -0.732416964891796 1.0
vn 0.7162043124544868 1.009942228537495 1.0
vn -0.8681902066250553 -0.4615358979002304 1.0
vn 0.6009002954197247 -0.732416964891796 1.0
vn -0.5001415626524293 -0.39983998155444334 1.0
vn 0.04660065815403169 -0.4615358979002304 1.0
vn 0.45564460082210734 0.8595783017813554 1.0
vn -1.4241563244064759 -0.39983998155444334 1.0
vn -1.121193856370699 -1.0159462301942572 1.0
vn -0.2898961786359002 0.8595783017813554 1.0
vn 0.17647509581119647 -0.09214726568785925 1.0
vn -1.0039926820902736 -1.0159462301942572 1.0
vn 1.5681715072310818 0.5111808589823301 1.0
vn -1.287481667745173 -0.09214726568785925 1.0
vn -0.5192407794483662 1.267759361856002 1.0
vn -0.6589734187701757 0.5111808589823301 1.0
vn 1.1724747198633425 1.267759361856002 1.0
vn 2.9432370406081985 0.4641699726586026 1.0
vn 2.479067067949596 -1.262025626342718 1.0
vn -0.3385815451741332 0.4641699726586026 1.0
vn 3.7410926942923135 -0.09348725392760437 1.0
vn -0.8681902066250553 -1.262025626342718 1.0
vn 3.8345799482199183 0.5559461819200933 1.0
vn -0.5001415626524293 -0.09348725392760437 1.0
vn 3.2786337662998246 -0.7172601554114508 1.0
vn 0.45564460082210734 0.5559461819200933 1.0
vn 3.995893921711276 0.28172272198763815 1.0
vn -1.121193856370699 -0.7172601554114508 1.0
vn 3.7141711997236375 1.299549145732026 1.0
vn 0.17647509581119647 0.28172272198763815 1.0
vn 2.4146220539916117 -1.5762314276971179 1.0
vn 1.5681715072310818 1.299549145732026 1.0
vn 3.9908534816887293 0.6399998376795806 1.0
vn -0.5192407794483662 -1.5762314276971179 1.0
vn -1.1470003036247876 0.6399998376795806 1.0
vn -2.2997176151410317 0.0 1.0
vn -2.587561884262217 0.0 1.0
vn 2.479067067949596 0.0 1.0
vn -2.3700123920900684 0.0 1.0
vn 3.7410926942923135 0.0 1.0
vn -3.3913912811330897 0.0 1.0
vn 3.8345799482199183 0.0 1.0
vn -2.7791583867149665 0.0 1.0
vn 3.2786337662998246 0.0 1.0
vn -2.344103012291744 0.0 1.0
vn 3.995893921711276 0.0 1.0
vn -3.2453374646204716 0.0 1.0
vn 3.7141711997236375 0.0 1.0
vn -3.31758260041408 0.0 1.0
vn 2.4146220539916117 0.0 1.0
vn -3.8886475232248445 0.0 1.0
vn 3.9908534816887293 0.0 1.0
vn 3.350853644009149 0.0 1.0
vn -0.5752201517313218 -0.2878442691211849 1.0
vn -1.019368508300896 0.21754949217214836 1.0
vn -2.587561884262217 -0.2878442691211849 1.0
vn 0.2808493507061893 -1.0213788890430213 1.0
vn -2.3700123920900684 0.21754949217214836 1.0
vn -0.24205966495892972 0.6122328944181232 1.0
vn -3.3913912811330897 -1.0213788890430213 1.0
vn 0.58030298346937 0.4350553744232226 1.0
vn -2.7791583867149665 0.6122328944181232 1.0
vn -0.08602820846565584 -0.9012344523287277 1.0
vn -2.344103012291744 0.4350553744232226 1.0
vn -0.38192615088734927 -0.07224513579360847 1.0
vn -3.2453374646204716 -0.9012344523287277 1.0
vn 0.20605836488381835 -0.5710649228107645 1.0
vn -3.31758260041408 -0.07224513579360847 1.0
vn -0.04897290650309993 1.5509563989929818 1.0
vn -3.8886475232248445 -0.5710649228107645 1.0
vn -2.3376911242318625 1.5509563989929818 1.0
vn 0.5398854972662344 -0.7319926256907592 1.0
vn 0.30355998697283626 1.5177673511792338 1.0
vn -1.019368508300896 -0.7319926256907592 1.0
vn -0.5866206717249403 -1.5442879047081404 1.0
vn 0.2808493507061893 1.5177673511792338 1.0
vn 0.9796379037904084 1.434595542846423 1.0
vn -0.24205966495892972 -1.5442879047081404 1.0
vn -1.1099834219798788 -0.23127581751180326 1.0
vn 0.58030298346937 1.434595542846423 1.0
vn -0.614194872171272 -1.197132394750421 1.0
vn -0.08602820846565584 -0.23127581751180326 1.0
vn 1.379905863916519 0.5157393799775591 1.0
vn -0.38192615088734927 -1.197132394750421 1.0
vn -0.7454879182327905 -0.8260961941976828 1.0
vn 0.20605836488381835 0.5157393799775591 1.0
vn 0.37924656890096875 1.5262442173511432 1.0
vn -0.04897290650309993 -0.8260961941976828 1.0
vn -0.07368508814493846 1.5262442173511432 1.0
vn 0.3020928253054651 -0.9683181359841573 1.0
vn 1.2025476976810139 0.6275866924814573 1.0
vn 0.30355998697283626 -0.9683181359841573 1.0
vn -0.6464988413494037 0.02197067080720827 1.0
vn -0.5866206717249403 0.6275866924814573 1.0
vn -0.7395042541463603 -0.6550257829238642 1.0
vn 0.9796379037904084 0.02197067080720827 1.0
vn 0.65473127831686 0.2645127322968035 1.0
vn -1.1099834219798788 -0.6550257829238642 1.0
vn 0.9825085707352481 0.7969683413373698 1.0
vn -0.614194872171272 0.2645127322968035 1.0
vn -0.49718581469006806 -1.6096544021717503 1.0
vn 1.379905863916519 0.7969683413373698 1.0
vn 0.49912171448365394 0.29863829293607647 1.0
vn -0.7454879182327905 -1.6096544021717503 1.0
vn 0.9713534175674023 1.4709042931429503 1.0
vn 0.37924656890096875 0.29863829293607647 1.0
vn 0.32390664469277586 1.4709042931429503 1.0
vn 1.2025476976810139 -0.0678632636086085 1.0
vn -0.6464988413494037 -1.2214598465489603 1.0
vn -0.7395042541463603 -0.07103474198974835 1.0
vn 0.65473127831686 0.7392097495393561 1.0
vn 0.9825085707352481 0.5922900247151917 1.0
vn -0.49718581469006806 -0.6827260440879463 1.0
vn 0.49912171448365394 -0.6133468729980283 1.0
vn 0.9713534175674023 0.7708699960198249 1.0
vn -0.009233877987736339 0.49031699758781166 1.0
vt 0 0
vt 0 1
vt 1 1
f 1/1/1 11/2/1 2/3/1
f 2/1/2 12/2/2 3/3/2
f 3/1/3 13/2/3 4/3/3
f 4/1/4 14/2/4 5/3/4
f 5/1/5 15/2/5 6/3/5
f 6/1/6 16/2/6 7/3/6
f 7/1/7 17/2/7 8/3/7
f 8/1/8 18/2/8 9/3/8
f 9/1/9 19/2/9 10/3/9
f 11/1/10 21/2/10 12/3/10
f 12/1/11 22/2/11 13/3/11
f 12/1/12 2/2/12 11/3/12
f 13/1/13 23/2/13 14/3/13
f 13/1/14 3/2/14 12/3/14
f 14/1/15 24/2/15 15/3/15
f 14/1/16 4/2/16 13/3/16
f 15/1/17 25/2/17 16/3/17
f 15/1/18 5/2/18 14/3/18
f 16/1/19 26/2/19 17/3/19
f 16/1/20 6/2/20 15/3/20
f 17/1/21 27/2/21 18/3/21
f 17/1/22 7/2/22 16/3/22
f 18/1/23 28/2/23 19/3/23
f 18/1/24 8/2/24 17/3/24
f 19/1/25 29/2/25 20/3/25
f 19/1/26 9/2/26 18/3/26
f 20/1/27 10/2/27 19/3/27
f 21/1/28 31/2/28 22/3/28
f 22/1/29 32/2/29 23/3/29
f 22/1/30 12/2/30 21/3/30
f 23/1/31 33/2/31 24/3/31
f 23/1/32 13/2/32 22/3/32
f 24/1/33 34/2/33 25/3/33
f 24/1/34 14/2/34 23/3/34
f 25/1/35 35/2/35 26/3/35
f 25/1/36 15/2/36 24/3/36
f 26/1/37 36/2/37 27/3/37
f 26/1/38 16/2/38 25/3/38
f 27/1/39 37/2/39 28/3/39
f 27/1/40 17/2/40 26/3/40
f 28/1/41 38/2/41 29/3/41
f 28/1/42 18/2/42 27/3/42
f 29/1/43 39/2/43 30/3/43
f 29/1/44 19/2/44 28/3/44
f 30/1/45 20/2/45 29/3/45
f 31/1/46 41/2/46 32/3/46
f 32/1/47 42/2/47 33/3/47
f 32/1/48 22/2/48 31/3/48
f 33/1/49 43/2/49 34/3/49
f 33/1/50 23/2/50 32/3/50
f 34/1/51 44/2/51 35/3/51
f 34/1/52 24/2/52 33/3/52
f 35/1/53 45/2/53 36/3/53
f 35/1/54 25/2/54 34/3/54
f 36/1/55 46/2/55 37/3/55
f 36/1/56 26/2/56 35/3/56
f 37/1/57 47/2/57 38/3/57
f 37/1/58 27/2/58 36/3/58
f 38/1/59 48/2/59 39/3/59
f 38/1/60 28/2/60 37/3/60
f 39/1/61 49/2/61 40/3/61
f 39/1/62 29/2/62 38/3/62
f 40/1/63 30/2/63 39/3/63
f 41/1/64 51/2/64 42/3/64
f 42/1/65 52/2/65 43/3/65
f 42/1/66 32/2/66 41/3/66
f 43/1/67 53/2/67 44/3/67
f 43/1/68 33/2/68 42/3/68
f 44/1/69 54/2/69 45/3/69
f 44/1/70 34/2/70 43/3/70
f 45/1/71 55/2/71 46/3/71
f 45/1/72 35/2/72 44/3/72
f 46/1/73 56/2/73 47/3/73
f 46/1/74 36/2/74 45/3/74
f 47/1/75 57/2/75 48/3/75
f 47/1/76 37/2/76 46/3/76
f 48/1/77 58/2/77 49/3/77
f 48/1/78 38/2/78 47/3/78
f 49/1/79 59/2/79 50/3/79
f 49/1/80 39/2/80 48/3/80
f 50/1/81 40/2/81 49/3/81
f 51/1/82 61/2/82 52/3/82
f 52/1/83 62/2/83 53/3/83
f 52/1/84 42/2/84 51/3/84
f 53/1/85 63/2/85 54/3/85
f 53/1/86 43/2/86 52/3/86
f 54/1/87 64/2/87 55/3/87
f 54/1/88 44/2/88 53/3/88
f 55/1/89 65/2/89 56/3/89
f 55/1/90 45/2/90 54/3/90
f 56/1/91 66/2/91 57/3/91
f 56/1/92 46/2/92 55/3/92
f 57/1/93 67/2/93 58/3/93
f 57/1/94 47/2/94 56/3/94
f 58/1/95 68/2/95 59/3/95
f 58/1/96 48/2/96 57/3/96
f 59/1/97 69/2/97 60/3/97
f 59/1/98 49/2/98 58/3/98
f 60/1/99 50/2/99 59/3/99
f 61/1/100 71/2/100 62/3/100
f 62/1/101 72/2/101 63/3/101
f 62/1/102 52/2/102 61/3/102
f 63/1/103 73/2/103 64/3/103
f 63/1/104 53/2/104 62/3/104
f 64/1/105 74/2/105 65/3/105
f 64/1/106 54/2/106 63/3/106
f 65/1/107 75/2/107 66/3/107
f 65/1/108 55/2/108 64/3/108
f 66/1/109 76/2/109 67/3/109
f 66/1/110 56/2/110 65/3/110
f 67/1/111 77/2/111 68/3/111
f 67/1/112 57/2/112 66/3/112
f 68/1/113 78/2/113 69/3/113
f 68/1/114 58/2/114 67/3/114
f 69/1/115 79/2/115 70/3/115
f 69/1/116 59/2/116 68/3/116
f 70/1/117 60/2/117 69/3/117
f 71/1/118 81/2/118 72/3/118
f 72/1/119 82/2/119 73/3/119
f 72/1/120 62/2/120 71/3/120
f 73/1/121 83/2/121 74/3/121
f 73/1/122 63/2/122 72/3/122
f 74/1/123 84/2/123 75/3/123
f 74/1/124 64/2/124 73/3/124
f 75/1/125 85/2/125 76/3/125
f 75/1/126 65/2/126 74/3/126
f 76/1/127 86/2/127 77/3/127
f 76/1/128 66/2/128 75/3/128
f 77/1/129 87/2/129 78/3/129
f 77/1/130 67/2/130 76/3/130
f 78/1/131 88/2/131 79/3/131
f 78/1/132 68/2/132 77/3/132
f 79/1/133 89/2/133 80/3/133
f 79/1/134 69/2/134 78/3/134
f 80/1/135 70/2/135 79/3/135
f 81/1/136 91/2/136 82/3/136
f 82/1/137 92/2/137 83/3/137
f 82/1/138 72/2/138 81/3/138
f 83/1/139 93/2/139 84/3/139
f 83/1/140 73/2/140 82/3/140
f 84/1/141 94/2/141 85/3/141
f 84/1/142 74/2/142 83/3/142
f 85/1/143 95/2/143 86/3/143
f 85/1/144 75/2/144 84/3/144
f 86/1/145 96/2/145 87/3/145
f 86/1/146 76/2/146 85/3/146
f 87/1/147 97/2/147 88/3/147
f 87/1/148 77/2/148 86/3/148
f 88/1/149 98/2/149 89/3/149
f 88/1/150 78/2/150 87/3/150
f 89/1/151 99/2/151 90/3/151
f 89/1/152 79/2/152 88/3/152
f 90/1/153 80/2/153 89/3/153
f 92/1/154 82/2/154 91/3/154
f 93/1/155 83/2/155 92/3/155
f 94/1/156 84/2/156 93/3/156
f 95/1/157 85/2/157 94/3/157
f 96/1/158 86/2/158 95/3/158
f 97/1/159 87/2/159 96/3/159
f 98/1/160 88/2/160 97/3/160
f 99/1/161 89/2/161 98/3/161
f 100/1/162 90/2/162 99/3/162
